<mxfile host="65bd71144e">
    <diagram name="第 1 页" id="pViOczzthZijgpjVrPlM">
        <mxGraphModel dx="1220" dy="794" grid="1" gridSize="10" guides="1" tooltips="1" connect="1" arrows="1" fold="1" page="1" pageScale="1" pageWidth="827" pageHeight="1169" math="0" shadow="0">
            <root>
                <mxCell id="0"/>
                <mxCell id="1" parent="0"/>
                <mxCell id="6" value="&lt;font style=&quot;font-size: 19px;&quot; face=&quot;Times New Roman&quot;&gt;(a)&lt;/font&gt;" style="rounded=0;whiteSpace=wrap;html=1;container=1;verticalAlign=bottom;strokeColor=none;fillColor=none;" vertex="1" parent="1">
                    <mxGeometry x="59.99999999999977" y="250" width="710" height="220" as="geometry">
                        <mxRectangle x="177" y="190" width="50" height="40" as="alternateBounds"/>
                    </mxGeometry>
                </mxCell>
                <mxCell id="7" value="" style="group" vertex="1" connectable="0" parent="6">
                    <mxGeometry x="20.000000000000227" y="22" width="669.9999999999998" height="176" as="geometry"/>
                </mxCell>
                <mxCell id="2" value="" style="group" vertex="1" connectable="0" parent="7">
                    <mxGeometry width="250" height="176" as="geometry"/>
                </mxCell>
                <mxCell id="1-Y5DaHRuDD5FXIdI6mk-96" value="8" style="ellipse;whiteSpace=wrap;html=1;fontFamily=Times New Roman;fontSize=19;fillColor=none;strokeColor=default;" parent="2" vertex="1">
                    <mxGeometry x="120" width="40" height="40" as="geometry"/>
                </mxCell>
                <mxCell id="1-Y5DaHRuDD5FXIdI6mk-99" value="7" style="ellipse;whiteSpace=wrap;html=1;fontFamily=Times New Roman;fontSize=19;fillColor=none;strokeColor=default;" parent="2" vertex="1">
                    <mxGeometry x="60" y="40" width="40" height="40" as="geometry"/>
                </mxCell>
                <mxCell id="1-Y5DaHRuDD5FXIdI6mk-94" style="rounded=0;orthogonalLoop=1;jettySize=auto;html=1;endArrow=none;endFill=0;strokeColor=default;" parent="2" source="1-Y5DaHRuDD5FXIdI6mk-96" target="1-Y5DaHRuDD5FXIdI6mk-99" edge="1">
                    <mxGeometry relative="1" as="geometry"/>
                </mxCell>
                <mxCell id="1-Y5DaHRuDD5FXIdI6mk-102" value="4" style="ellipse;whiteSpace=wrap;html=1;fontFamily=Times New Roman;fontSize=19;fillColor=none;strokeColor=default;" parent="2" vertex="1">
                    <mxGeometry x="180" y="40" width="40" height="40" as="geometry"/>
                </mxCell>
                <mxCell id="1-Y5DaHRuDD5FXIdI6mk-95" style="edgeStyle=none;shape=connector;rounded=0;orthogonalLoop=1;jettySize=auto;html=1;labelBackgroundColor=default;strokeColor=default;align=center;verticalAlign=middle;fontFamily=Helvetica;fontSize=11;fontColor=default;endArrow=none;endFill=0;" parent="2" source="1-Y5DaHRuDD5FXIdI6mk-96" target="1-Y5DaHRuDD5FXIdI6mk-102" edge="1">
                    <mxGeometry relative="1" as="geometry"/>
                </mxCell>
                <mxCell id="1-Y5DaHRuDD5FXIdI6mk-103" value="5" style="ellipse;whiteSpace=wrap;html=1;fontFamily=Times New Roman;fontSize=19;fillColor=none;strokeColor=default;" parent="2" vertex="1">
                    <mxGeometry x="90" y="90" width="40" height="40" as="geometry"/>
                </mxCell>
                <mxCell id="1-Y5DaHRuDD5FXIdI6mk-98" style="edgeStyle=none;shape=connector;rounded=0;orthogonalLoop=1;jettySize=auto;html=1;labelBackgroundColor=default;strokeColor=default;align=center;verticalAlign=middle;fontFamily=Helvetica;fontSize=11;fontColor=default;endArrow=none;endFill=0;" parent="2" source="1-Y5DaHRuDD5FXIdI6mk-99" target="1-Y5DaHRuDD5FXIdI6mk-103" edge="1">
                    <mxGeometry relative="1" as="geometry"/>
                </mxCell>
                <mxCell id="1-Y5DaHRuDD5FXIdI6mk-104" value="1" style="ellipse;whiteSpace=wrap;html=1;fontFamily=Times New Roman;fontSize=19;fillColor=none;strokeColor=default;" parent="2" vertex="1">
                    <mxGeometry x="150" y="90" width="40" height="40" as="geometry"/>
                </mxCell>
                <mxCell id="1-Y5DaHRuDD5FXIdI6mk-100" style="edgeStyle=none;shape=connector;rounded=0;orthogonalLoop=1;jettySize=auto;html=1;labelBackgroundColor=default;strokeColor=default;align=center;verticalAlign=middle;fontFamily=Helvetica;fontSize=11;fontColor=default;endArrow=none;endFill=0;" parent="2" source="1-Y5DaHRuDD5FXIdI6mk-102" target="1-Y5DaHRuDD5FXIdI6mk-104" edge="1">
                    <mxGeometry relative="1" as="geometry"/>
                </mxCell>
                <mxCell id="1-Y5DaHRuDD5FXIdI6mk-107" value="6" style="ellipse;whiteSpace=wrap;html=1;fontFamily=Times New Roman;fontSize=19;fillColor=none;strokeColor=default;" parent="2" vertex="1">
                    <mxGeometry x="30" y="90" width="40" height="40" as="geometry"/>
                </mxCell>
                <mxCell id="1-Y5DaHRuDD5FXIdI6mk-97" style="edgeStyle=none;shape=connector;rounded=0;orthogonalLoop=1;jettySize=auto;html=1;labelBackgroundColor=default;strokeColor=default;align=center;verticalAlign=middle;fontFamily=Helvetica;fontSize=11;fontColor=default;endArrow=none;endFill=0;" parent="2" source="1-Y5DaHRuDD5FXIdI6mk-99" target="1-Y5DaHRuDD5FXIdI6mk-107" edge="1">
                    <mxGeometry relative="1" as="geometry"/>
                </mxCell>
                <mxCell id="1-Y5DaHRuDD5FXIdI6mk-108" value="2" style="ellipse;whiteSpace=wrap;html=1;fontFamily=Times New Roman;fontSize=19;fillColor=none;strokeColor=default;" parent="2" vertex="1">
                    <mxGeometry x="210" y="90" width="40" height="40" as="geometry"/>
                </mxCell>
                <mxCell id="1-Y5DaHRuDD5FXIdI6mk-101" style="edgeStyle=none;shape=connector;rounded=0;orthogonalLoop=1;jettySize=auto;html=1;labelBackgroundColor=default;strokeColor=default;align=center;verticalAlign=middle;fontFamily=Helvetica;fontSize=11;fontColor=default;endArrow=none;endFill=0;" parent="2" source="1-Y5DaHRuDD5FXIdI6mk-102" target="1-Y5DaHRuDD5FXIdI6mk-108" edge="1">
                    <mxGeometry relative="1" as="geometry"/>
                </mxCell>
                <mxCell id="1-Y5DaHRuDD5FXIdI6mk-109" value="3" style="ellipse;whiteSpace=wrap;html=1;fontFamily=Times New Roman;fontSize=19;fillColor=none;strokeColor=default;" parent="2" vertex="1">
                    <mxGeometry y="136" width="40" height="40" as="geometry"/>
                </mxCell>
                <mxCell id="1-Y5DaHRuDD5FXIdI6mk-105" style="edgeStyle=none;shape=connector;rounded=0;orthogonalLoop=1;jettySize=auto;html=1;labelBackgroundColor=default;strokeColor=default;align=center;verticalAlign=middle;fontFamily=Helvetica;fontSize=11;fontColor=default;endArrow=none;endFill=0;" parent="2" source="1-Y5DaHRuDD5FXIdI6mk-107" target="1-Y5DaHRuDD5FXIdI6mk-109" edge="1">
                    <mxGeometry relative="1" as="geometry"/>
                </mxCell>
                <mxCell id="4" value="" style="group" vertex="1" connectable="0" parent="7">
                    <mxGeometry x="289.9999999999998" y="8" width="380" height="70" as="geometry"/>
                </mxCell>
                <mxCell id="1-Y5DaHRuDD5FXIdI6mk-111" value="" style="group" parent="4" vertex="1" connectable="0">
                    <mxGeometry x="10" y="30" width="120" height="40" as="geometry"/>
                </mxCell>
                <mxCell id="1-Y5DaHRuDD5FXIdI6mk-112" value="&lt;font face=&quot;Times New Roman&quot;&gt;&lt;span style=&quot;font-size: 19px;&quot;&gt;8&lt;/span&gt;&lt;/font&gt;" style="whiteSpace=wrap;html=1;aspect=fixed;" parent="1-Y5DaHRuDD5FXIdI6mk-111" vertex="1">
                    <mxGeometry width="40" height="40" as="geometry"/>
                </mxCell>
                <mxCell id="1-Y5DaHRuDD5FXIdI6mk-113" value="&lt;font face=&quot;Times New Roman&quot;&gt;&lt;span style=&quot;font-size: 19px;&quot;&gt;4&lt;/span&gt;&lt;/font&gt;" style="whiteSpace=wrap;html=1;aspect=fixed;" parent="1-Y5DaHRuDD5FXIdI6mk-111" vertex="1">
                    <mxGeometry x="80" width="40" height="40" as="geometry"/>
                </mxCell>
                <mxCell id="1-Y5DaHRuDD5FXIdI6mk-114" value="&lt;font face=&quot;Times New Roman&quot;&gt;&lt;span style=&quot;font-size: 19px;&quot;&gt;7&lt;/span&gt;&lt;/font&gt;" style="whiteSpace=wrap;html=1;aspect=fixed;" parent="1-Y5DaHRuDD5FXIdI6mk-111" vertex="1">
                    <mxGeometry x="40" width="40" height="40" as="geometry"/>
                </mxCell>
                <mxCell id="1-Y5DaHRuDD5FXIdI6mk-115" value="" style="group" parent="4" vertex="1" connectable="0">
                    <mxGeometry x="250" y="30" width="120" height="40" as="geometry"/>
                </mxCell>
                <mxCell id="1-Y5DaHRuDD5FXIdI6mk-116" value="&lt;font face=&quot;Times New Roman&quot;&gt;&lt;span style=&quot;font-size: 19px;&quot;&gt;2&lt;/span&gt;&lt;/font&gt;" style="whiteSpace=wrap;html=1;aspect=fixed;" parent="1-Y5DaHRuDD5FXIdI6mk-115" vertex="1">
                    <mxGeometry width="40" height="40" as="geometry"/>
                </mxCell>
                <mxCell id="1-Y5DaHRuDD5FXIdI6mk-117" value="&lt;font face=&quot;Times New Roman&quot;&gt;&lt;span style=&quot;font-size: 19px;&quot;&gt;&lt;b&gt;9&lt;/b&gt;&lt;/span&gt;&lt;/font&gt;" style="whiteSpace=wrap;html=1;aspect=fixed;" parent="1-Y5DaHRuDD5FXIdI6mk-115" vertex="1">
                    <mxGeometry x="80" width="40" height="40" as="geometry"/>
                </mxCell>
                <mxCell id="1-Y5DaHRuDD5FXIdI6mk-118" value="&lt;font face=&quot;Times New Roman&quot;&gt;&lt;span style=&quot;font-size: 19px;&quot;&gt;3&lt;/span&gt;&lt;/font&gt;" style="whiteSpace=wrap;html=1;aspect=fixed;" parent="1-Y5DaHRuDD5FXIdI6mk-115" vertex="1">
                    <mxGeometry x="40" width="40" height="40" as="geometry"/>
                </mxCell>
                <mxCell id="1-Y5DaHRuDD5FXIdI6mk-119" value="" style="group" parent="4" vertex="1" connectable="0">
                    <mxGeometry x="130" y="30" width="120" height="40" as="geometry"/>
                </mxCell>
                <mxCell id="1-Y5DaHRuDD5FXIdI6mk-120" value="&lt;font face=&quot;Times New Roman&quot;&gt;&lt;span style=&quot;font-size: 19px;&quot;&gt;6&lt;/span&gt;&lt;/font&gt;" style="whiteSpace=wrap;html=1;aspect=fixed;" parent="1-Y5DaHRuDD5FXIdI6mk-119" vertex="1">
                    <mxGeometry width="40" height="40" as="geometry"/>
                </mxCell>
                <mxCell id="1-Y5DaHRuDD5FXIdI6mk-121" value="&lt;font face=&quot;Times New Roman&quot;&gt;&lt;span style=&quot;font-size: 19px;&quot;&gt;1&lt;/span&gt;&lt;/font&gt;" style="whiteSpace=wrap;html=1;aspect=fixed;" parent="1-Y5DaHRuDD5FXIdI6mk-119" vertex="1">
                    <mxGeometry x="80" width="40" height="40" as="geometry"/>
                </mxCell>
                <mxCell id="1-Y5DaHRuDD5FXIdI6mk-122" value="&lt;font face=&quot;Times New Roman&quot;&gt;&lt;span style=&quot;font-size: 19px;&quot;&gt;5&lt;/span&gt;&lt;/font&gt;" style="whiteSpace=wrap;html=1;aspect=fixed;" parent="1-Y5DaHRuDD5FXIdI6mk-119" vertex="1">
                    <mxGeometry x="40" width="40" height="40" as="geometry"/>
                </mxCell>
                <mxCell id="1-Y5DaHRuDD5FXIdI6mk-123" value="&lt;span style=&quot;font-size: 19px;&quot;&gt;a[0]&lt;/span&gt;" style="text;html=1;strokeColor=none;fillColor=none;align=center;verticalAlign=middle;whiteSpace=wrap;rounded=0;fontSize=11;fontFamily=Times New Roman;fontColor=default;" parent="4" vertex="1">
                    <mxGeometry width="60" height="30" as="geometry"/>
                </mxCell>
                <mxCell id="1-Y5DaHRuDD5FXIdI6mk-124" value="&lt;span style=&quot;font-size: 19px;&quot;&gt;a[8]&lt;/span&gt;" style="text;html=1;strokeColor=none;fillColor=none;align=center;verticalAlign=middle;whiteSpace=wrap;rounded=0;fontSize=11;fontFamily=Times New Roman;fontColor=default;" parent="4" vertex="1">
                    <mxGeometry x="320" width="60" height="30" as="geometry"/>
                </mxCell>
                <mxCell id="8" value="&lt;font style=&quot;font-size: 19px;&quot; face=&quot;Times New Roman&quot;&gt;(b)&lt;/font&gt;" style="rounded=0;whiteSpace=wrap;html=1;container=1;verticalAlign=bottom;strokeColor=none;fillColor=none;" vertex="1" parent="1">
                    <mxGeometry x="58.99999999999977" y="470" width="710" height="220" as="geometry">
                        <mxRectangle x="177" y="190" width="50" height="40" as="alternateBounds"/>
                    </mxGeometry>
                </mxCell>
                <mxCell id="41" value="" style="group" vertex="1" connectable="0" parent="8">
                    <mxGeometry x="50.00000000000023" y="40" width="659.9999999999998" height="140" as="geometry"/>
                </mxCell>
                <mxCell id="3" value="" style="group" vertex="1" connectable="0" parent="41">
                    <mxGeometry width="220" height="130" as="geometry"/>
                </mxCell>
                <mxCell id="1-Y5DaHRuDD5FXIdI6mk-127" value="7" style="ellipse;whiteSpace=wrap;html=1;fontFamily=Times New Roman;fontSize=19;fillColor=none;strokeColor=default;" parent="3" vertex="1">
                    <mxGeometry x="90" width="40" height="40" as="geometry"/>
                </mxCell>
                <mxCell id="1-Y5DaHRuDD5FXIdI6mk-130" value="6" style="ellipse;whiteSpace=wrap;html=1;fontFamily=Times New Roman;fontSize=19;fillColor=none;strokeColor=default;" parent="3" vertex="1">
                    <mxGeometry x="30" y="40" width="40" height="40" as="geometry"/>
                </mxCell>
                <mxCell id="1-Y5DaHRuDD5FXIdI6mk-125" style="rounded=0;orthogonalLoop=1;jettySize=auto;html=1;endArrow=none;endFill=0;strokeColor=default;" parent="3" source="1-Y5DaHRuDD5FXIdI6mk-127" target="1-Y5DaHRuDD5FXIdI6mk-130" edge="1">
                    <mxGeometry relative="1" as="geometry"/>
                </mxCell>
                <mxCell id="1-Y5DaHRuDD5FXIdI6mk-133" value="4" style="ellipse;whiteSpace=wrap;html=1;fontFamily=Times New Roman;fontSize=19;fillColor=none;strokeColor=default;" parent="3" vertex="1">
                    <mxGeometry x="150" y="40" width="40" height="40" as="geometry"/>
                </mxCell>
                <mxCell id="1-Y5DaHRuDD5FXIdI6mk-126" style="edgeStyle=none;shape=connector;rounded=0;orthogonalLoop=1;jettySize=auto;html=1;labelBackgroundColor=default;strokeColor=default;align=center;verticalAlign=middle;fontFamily=Helvetica;fontSize=11;fontColor=default;endArrow=none;endFill=0;" parent="3" source="1-Y5DaHRuDD5FXIdI6mk-127" target="1-Y5DaHRuDD5FXIdI6mk-133" edge="1">
                    <mxGeometry relative="1" as="geometry"/>
                </mxCell>
                <mxCell id="1-Y5DaHRuDD5FXIdI6mk-134" value="5" style="ellipse;whiteSpace=wrap;html=1;fontFamily=Times New Roman;fontSize=19;fillColor=none;strokeColor=default;" parent="3" vertex="1">
                    <mxGeometry x="60" y="90" width="40" height="40" as="geometry"/>
                </mxCell>
                <mxCell id="1-Y5DaHRuDD5FXIdI6mk-129" style="edgeStyle=none;shape=connector;rounded=0;orthogonalLoop=1;jettySize=auto;html=1;labelBackgroundColor=default;strokeColor=default;align=center;verticalAlign=middle;fontFamily=Helvetica;fontSize=11;fontColor=default;endArrow=none;endFill=0;" parent="3" source="1-Y5DaHRuDD5FXIdI6mk-130" target="1-Y5DaHRuDD5FXIdI6mk-134" edge="1">
                    <mxGeometry relative="1" as="geometry"/>
                </mxCell>
                <mxCell id="1-Y5DaHRuDD5FXIdI6mk-135" value="1" style="ellipse;whiteSpace=wrap;html=1;fontFamily=Times New Roman;fontSize=19;fillColor=none;strokeColor=default;" parent="3" vertex="1">
                    <mxGeometry x="120" y="90" width="40" height="40" as="geometry"/>
                </mxCell>
                <mxCell id="1-Y5DaHRuDD5FXIdI6mk-131" style="edgeStyle=none;shape=connector;rounded=0;orthogonalLoop=1;jettySize=auto;html=1;labelBackgroundColor=default;strokeColor=default;align=center;verticalAlign=middle;fontFamily=Helvetica;fontSize=11;fontColor=default;endArrow=none;endFill=0;" parent="3" source="1-Y5DaHRuDD5FXIdI6mk-133" target="1-Y5DaHRuDD5FXIdI6mk-135" edge="1">
                    <mxGeometry relative="1" as="geometry"/>
                </mxCell>
                <mxCell id="1-Y5DaHRuDD5FXIdI6mk-138" value="3" style="ellipse;whiteSpace=wrap;html=1;fontFamily=Times New Roman;fontSize=19;fillColor=none;strokeColor=default;" parent="3" vertex="1">
                    <mxGeometry y="90" width="40" height="40" as="geometry"/>
                </mxCell>
                <mxCell id="1-Y5DaHRuDD5FXIdI6mk-128" style="edgeStyle=none;shape=connector;rounded=0;orthogonalLoop=1;jettySize=auto;html=1;labelBackgroundColor=default;strokeColor=default;align=center;verticalAlign=middle;fontFamily=Helvetica;fontSize=11;fontColor=default;endArrow=none;endFill=0;" parent="3" source="1-Y5DaHRuDD5FXIdI6mk-130" target="1-Y5DaHRuDD5FXIdI6mk-138" edge="1">
                    <mxGeometry relative="1" as="geometry"/>
                </mxCell>
                <mxCell id="1-Y5DaHRuDD5FXIdI6mk-139" value="2" style="ellipse;whiteSpace=wrap;html=1;fontFamily=Times New Roman;fontSize=19;fillColor=none;strokeColor=default;" parent="3" vertex="1">
                    <mxGeometry x="180" y="90" width="40" height="40" as="geometry"/>
                </mxCell>
                <mxCell id="1-Y5DaHRuDD5FXIdI6mk-132" style="edgeStyle=none;shape=connector;rounded=0;orthogonalLoop=1;jettySize=auto;html=1;labelBackgroundColor=default;strokeColor=default;align=center;verticalAlign=middle;fontFamily=Helvetica;fontSize=11;fontColor=default;endArrow=none;endFill=0;" parent="3" source="1-Y5DaHRuDD5FXIdI6mk-133" target="1-Y5DaHRuDD5FXIdI6mk-139" edge="1">
                    <mxGeometry relative="1" as="geometry"/>
                </mxCell>
                <mxCell id="5" value="" style="group" vertex="1" connectable="0" parent="41">
                    <mxGeometry x="259.9999999999998" y="25" width="400" height="115" as="geometry"/>
                </mxCell>
                <mxCell id="1-Y5DaHRuDD5FXIdI6mk-142" value="" style="group" parent="5" vertex="1" connectable="0">
                    <mxGeometry x="11" y="30" width="120" height="40" as="geometry"/>
                </mxCell>
                <mxCell id="1-Y5DaHRuDD5FXIdI6mk-143" value="&lt;font face=&quot;Times New Roman&quot;&gt;&lt;span style=&quot;font-size: 19px;&quot;&gt;7&lt;/span&gt;&lt;/font&gt;" style="whiteSpace=wrap;html=1;aspect=fixed;" parent="1-Y5DaHRuDD5FXIdI6mk-142" vertex="1">
                    <mxGeometry width="40" height="40" as="geometry"/>
                </mxCell>
                <mxCell id="1-Y5DaHRuDD5FXIdI6mk-144" value="&lt;font face=&quot;Times New Roman&quot;&gt;&lt;span style=&quot;font-size: 19px;&quot;&gt;4&lt;/span&gt;&lt;/font&gt;" style="whiteSpace=wrap;html=1;aspect=fixed;" parent="1-Y5DaHRuDD5FXIdI6mk-142" vertex="1">
                    <mxGeometry x="80" width="40" height="40" as="geometry"/>
                </mxCell>
                <mxCell id="1-Y5DaHRuDD5FXIdI6mk-145" value="&lt;font face=&quot;Times New Roman&quot;&gt;&lt;span style=&quot;font-size: 19px;&quot;&gt;6&lt;/span&gt;&lt;/font&gt;" style="whiteSpace=wrap;html=1;aspect=fixed;" parent="1-Y5DaHRuDD5FXIdI6mk-142" vertex="1">
                    <mxGeometry x="40" width="40" height="40" as="geometry"/>
                </mxCell>
                <mxCell id="1-Y5DaHRuDD5FXIdI6mk-146" value="" style="group" parent="5" vertex="1" connectable="0">
                    <mxGeometry x="251" y="30" width="120" height="40" as="geometry"/>
                </mxCell>
                <mxCell id="1-Y5DaHRuDD5FXIdI6mk-147" value="&lt;font face=&quot;Times New Roman&quot;&gt;&lt;span style=&quot;font-size: 19px;&quot;&gt;2&lt;/span&gt;&lt;/font&gt;" style="whiteSpace=wrap;html=1;aspect=fixed;" parent="1-Y5DaHRuDD5FXIdI6mk-146" vertex="1">
                    <mxGeometry width="40" height="40" as="geometry"/>
                </mxCell>
                <mxCell id="1-Y5DaHRuDD5FXIdI6mk-148" value="&lt;font face=&quot;Times New Roman&quot;&gt;&lt;span style=&quot;font-size: 19px;&quot;&gt;&lt;b&gt;9&lt;/b&gt;&lt;/span&gt;&lt;/font&gt;" style="whiteSpace=wrap;html=1;aspect=fixed;" parent="1-Y5DaHRuDD5FXIdI6mk-146" vertex="1">
                    <mxGeometry x="80" width="40" height="40" as="geometry"/>
                </mxCell>
                <mxCell id="1-Y5DaHRuDD5FXIdI6mk-149" value="&lt;font face=&quot;Times New Roman&quot;&gt;&lt;span style=&quot;font-size: 19px;&quot;&gt;&lt;b&gt;8&lt;/b&gt;&lt;/span&gt;&lt;/font&gt;" style="whiteSpace=wrap;html=1;aspect=fixed;" parent="1-Y5DaHRuDD5FXIdI6mk-146" vertex="1">
                    <mxGeometry x="40" width="40" height="40" as="geometry"/>
                </mxCell>
                <mxCell id="1-Y5DaHRuDD5FXIdI6mk-150" value="" style="group" parent="5" vertex="1" connectable="0">
                    <mxGeometry x="131" y="30" width="120" height="40" as="geometry"/>
                </mxCell>
                <mxCell id="1-Y5DaHRuDD5FXIdI6mk-151" value="&lt;font face=&quot;Times New Roman&quot;&gt;&lt;span style=&quot;font-size: 19px;&quot;&gt;3&lt;/span&gt;&lt;/font&gt;" style="whiteSpace=wrap;html=1;aspect=fixed;" parent="1-Y5DaHRuDD5FXIdI6mk-150" vertex="1">
                    <mxGeometry width="40" height="40" as="geometry"/>
                </mxCell>
                <mxCell id="1-Y5DaHRuDD5FXIdI6mk-152" value="&lt;font face=&quot;Times New Roman&quot;&gt;&lt;span style=&quot;font-size: 19px;&quot;&gt;1&lt;/span&gt;&lt;/font&gt;" style="whiteSpace=wrap;html=1;aspect=fixed;" parent="1-Y5DaHRuDD5FXIdI6mk-150" vertex="1">
                    <mxGeometry x="80" width="40" height="40" as="geometry"/>
                </mxCell>
                <mxCell id="1-Y5DaHRuDD5FXIdI6mk-153" value="&lt;font face=&quot;Times New Roman&quot;&gt;&lt;span style=&quot;font-size: 19px;&quot;&gt;5&lt;/span&gt;&lt;/font&gt;" style="whiteSpace=wrap;html=1;aspect=fixed;" parent="1-Y5DaHRuDD5FXIdI6mk-150" vertex="1">
                    <mxGeometry x="40" width="40" height="40" as="geometry"/>
                </mxCell>
                <mxCell id="1-Y5DaHRuDD5FXIdI6mk-154" value="&lt;span style=&quot;font-size: 19px;&quot;&gt;a[0]&lt;/span&gt;" style="text;html=1;strokeColor=none;fillColor=none;align=center;verticalAlign=middle;whiteSpace=wrap;rounded=0;fontSize=11;fontFamily=Times New Roman;fontColor=default;" parent="5" vertex="1">
                    <mxGeometry width="60" height="30" as="geometry"/>
                </mxCell>
                <mxCell id="1-Y5DaHRuDD5FXIdI6mk-155" value="&lt;span style=&quot;font-size: 19px;&quot;&gt;a[8]&lt;/span&gt;" style="text;html=1;strokeColor=none;fillColor=none;align=center;verticalAlign=middle;whiteSpace=wrap;rounded=0;fontSize=11;fontFamily=Times New Roman;fontColor=default;" parent="5" vertex="1">
                    <mxGeometry x="320" width="60" height="30" as="geometry"/>
                </mxCell>
            </root>
        </mxGraphModel>
    </diagram>
</mxfile>